<svg height="2688" viewBox="0 0 3360 2688" width="3360" xmlns="http://www.w3.org/2000/svg"><g fill="none" stroke="#231f20" stroke-linecap="round" stroke-linejoin="round" stroke-miterlimit="10" transform="matrix(.13333333 0 0 -.13333333 0 2688)"><g stroke-width="211.25"><path stroke="white" d="m9341.2 11985.9c-1682.55-222.1-2326.94-566.2-2432.51-691.5-105.58-125.4-121.23-1065.4-57.79-1908 63.44-842.5 274.51-1490.5 568.82-1605.2 294.31-114.6 4348.58-1503.8 4705.28-1603.2 356.7-99.3 891.8-248.4 1282.4-88.1 390.5 160.2 1329.6 689.2 1797.4 1015 467.9 325.7 1069.7 1240.5 921 2217-148.7 976.4-677.5 1398-1902.9 1392.4-1225.3-5.6-4634.79 188.9-4881.7 1271.6z"/><path stroke="white" d="m9702.65 11516.9c-33.94 1151.9 942.95 956.8 912.75 431.7 2277.4-1287 5347.9 97.6 6002.6-1823.7 352.2-1033.3-333.2-2160.5-1064-2688.9"/><path stroke="white" d="m10327.3 12410.7c3317.6 1580 5803.4 2187.9 7306.5 1360.1 746.8-411.3 767-1386.8 749.2-2042.9-18-664.3-74.6-787.6-159.1-923.4-440.6-708.1-1630.1-1957-1630.1-1957"/><path stroke="white" d="m16319.1 10646.1c1674.8 1500.3 2143 1827.5 1805 2625.6"/><path stroke="white" d="m11536 11569.4c3196.9 1837.7 5600.5 1611.6 6335.5 525.5"/><path stroke="white" d="m6908.69 11294.4c157.74 139.8 1360.88-294.8 2713.56-649 1498.85-392.5 2949.35-668 3297.45-1096.3 422.5-519.7 246.8-3431.1-394.6-3472.4"/></g><path stroke="white" d="m9045.91 10802.6c-656.05 182.9-1296.18 538.3-1304.97 866.3" stroke-width="121.875"/><path stroke="white" d="m13634 6193.4c693 561.9 699.3 2944.3 290.5 3464.4-481.8 612.9-1553.2 229-3207 711.8" stroke-width="121.875"/><path stroke="white" d="m14653.2 8887.5 14.5-539.2 918 472.8-14.6 544.3z" stroke-width="121.875"/><path stroke="white" d="m14667.7 7962 918 472.8" stroke-width="121.875"/><path stroke="white" d="m17644.7 11837.9 45.7-1703.8" stroke-width="81.25"/></g></svg>